<?xml version="1.0" encoding="utf-8"?>
<!-- Generator: Adobe Illustrator 25.0.0, SVG Export Plug-In . SVG Version: 6.00 Build 0)  -->
<svg version="1.1" id="artwork" xmlns="http://www.w3.org/2000/svg" xmlns:xlink="http://www.w3.org/1999/xlink" x="0px" y="0px"
	 width="135px" height="40px" viewBox="0 0 135 40" style="enable-background:new 0 0 135 40;" xml:space="preserve">
<style type="text/css">
	.st0{fill:#A6A6A6;}
	.st1{fill:#FFFFFF;}
	.st2{fill:url(#SVGID_1_);}
	.st3{fill:url(#SVGID_2_);}
	.st4{fill:url(#SVGID_3_);}
	.st5{fill:url(#SVGID_4_);}
	.st6{opacity:0.2;enable-background:new    ;}
	.st7{opacity:0.12;enable-background:new    ;}
	.st8{opacity:0.25;fill:#FFFFFF;enable-background:new    ;}
	.st9{fill:#FFFFFF;stroke:#FFFFFF;stroke-width:0.2;stroke-miterlimit:10;}
</style>
<g>
	<path d="M130,40H5c-2.75,0-5-2.25-5-5V5c0-2.75,2.25-5,5-5h125c2.75,0,5,2.25,5,5v30C135,37.75,132.75,40,130,40z"/>
</g>
<path class="st0" d="M130,0.8c2.316,0,4.2,1.884,4.2,4.2v30c0,2.316-1.884,4.2-4.2,4.2H5c-2.316,0-4.2-1.884-4.2-4.2V5
	c0-2.316,1.884-4.2,4.2-4.2H130 M130,0H5C2.25,0,0,2.25,0,5v30c0,2.75,2.25,5,5,5h125c2.75,0,5-2.25,5-5V5C135,2.25,132.75,0,130,0
	L130,0z"/>
<path class="st1" d="M68.136,21.751c-2.352,0-4.269,1.788-4.269,4.253c0,2.449,1.917,4.253,4.269,4.253
	c2.352,0,4.269-1.804,4.269-4.253C72.405,23.54,70.488,21.751,68.136,21.751z M68.136,28.582c-1.289,0-2.401-1.063-2.401-2.578
	c0-1.531,1.112-2.578,2.401-2.578c1.289,0,2.4,1.047,2.4,2.578C70.536,27.519,69.425,28.582,68.136,28.582z M58.822,21.751
	c-2.352,0-4.269,1.788-4.269,4.253c0,2.449,1.917,4.253,4.269,4.253c2.352,0,4.269-1.804,4.269-4.253
	C63.092,23.54,61.174,21.751,58.822,21.751z M58.822,28.582c-1.289,0-2.4-1.063-2.4-2.578c0-1.531,1.112-2.578,2.4-2.578
	c1.289,0,2.4,1.047,2.4,2.578C61.223,27.519,60.111,28.582,58.822,28.582z M47.744,23.056v1.804h4.318
	c-0.129,1.015-0.467,1.756-0.983,2.272c-0.628,0.628-1.611,1.321-3.335,1.321c-2.658,0-4.736-2.143-4.736-4.801
	s2.078-4.801,4.736-4.801c1.434,0,2.481,0.564,3.254,1.289l1.273-1.273c-1.079-1.031-2.513-1.821-4.527-1.821
	c-3.641,0-6.702,2.964-6.702,6.605c0,3.641,3.061,6.605,6.702,6.605c1.965,0,3.448-0.644,4.608-1.853
	c1.192-1.192,1.563-2.868,1.563-4.221c0-0.419-0.032-0.806-0.097-1.128H47.744z M93.052,24.458
	c-0.354-0.951-1.434-2.707-3.641-2.707c-2.191,0-4.011,1.724-4.011,4.253c0,2.384,1.804,4.253,4.221,4.253
	c1.949,0,3.077-1.192,3.544-1.885l-1.45-0.967c-0.483,0.709-1.144,1.176-2.094,1.176c-0.951,0-1.627-0.435-2.062-1.289l5.687-2.352
	L93.052,24.458z M87.252,25.876c-0.048-1.643,1.273-2.481,2.223-2.481c0.741,0,1.369,0.371,1.579,0.902L87.252,25.876z M82.628,30
	h1.869V17.498h-1.869V30z M79.567,22.702h-0.064c-0.419-0.499-1.224-0.951-2.239-0.951c-2.127,0-4.076,1.869-4.076,4.269
	c0,2.384,1.949,4.237,4.076,4.237c1.015,0,1.82-0.451,2.239-0.967h0.064v0.612c0,1.627-0.87,2.497-2.272,2.497
	c-1.144,0-1.853-0.822-2.143-1.514l-1.627,0.677c0.467,1.128,1.708,2.513,3.77,2.513c2.191,0,4.044-1.289,4.044-4.43v-7.636h-1.772
	V22.702z M77.425,28.582c-1.289,0-2.368-1.079-2.368-2.562c0-1.498,1.079-2.594,2.368-2.594c1.273,0,2.271,1.095,2.271,2.594
	C79.696,27.503,78.698,28.582,77.425,28.582z M101.806,17.499h-4.471V30H99.2v-4.736h2.605c2.068,0,4.101-1.497,4.101-3.882
	S103.874,17.499,101.806,17.499z M101.854,23.524H99.2v-4.285h2.654c1.395,0,2.187,1.155,2.187,2.143
	C104.041,22.35,103.249,23.524,101.854,23.524z M113.386,21.729c-1.351,0-2.75,0.595-3.329,1.914l1.657,0.692
	c0.354-0.692,1.013-0.917,1.705-0.917c0.965,0,1.946,0.579,1.962,1.608v0.129c-0.338-0.193-1.062-0.483-1.946-0.483
	c-1.785,0-3.603,0.981-3.603,2.815c0,1.673,1.464,2.75,3.104,2.75c1.255,0,1.946-0.563,2.38-1.222h0.064v0.965h1.801v-4.793
	C117.181,22.967,115.525,21.729,113.386,21.729z M113.16,28.58c-0.611,0-1.464-0.306-1.464-1.062c0-0.965,1.062-1.335,1.978-1.335
	c0.82,0,1.206,0.177,1.705,0.418C115.235,27.76,114.238,28.58,113.16,28.58z M123.743,22.002l-2.139,5.42h-0.064l-2.219-5.42h-2.01
	l3.329,7.575l-1.898,4.214h1.946l5.131-11.789H123.743z M106.936,30h1.866V17.499h-1.866V30z"/>
<g>
	
		<linearGradient id="SVGID_1_" gradientUnits="userSpaceOnUse" x1="21.7996" y1="173.2902" x2="5.0172" y2="156.5078" gradientTransform="matrix(1 0 0 -1 0 181.9998)">
		<stop  offset="0" style="stop-color:#00A0FF"/>
		<stop  offset="0.0066" style="stop-color:#00A1FF"/>
		<stop  offset="0.2601" style="stop-color:#00BEFF"/>
		<stop  offset="0.5122" style="stop-color:#00D2FF"/>
		<stop  offset="0.7604" style="stop-color:#00DFFF"/>
		<stop  offset="1" style="stop-color:#00E3FF"/>
	</linearGradient>
	<path class="st2" d="M10.435,7.538c-0.291,0.308-0.463,0.786-0.463,1.405v22.116c0,0.62,0.172,1.097,0.463,1.405l0.074,0.072
		l12.389-12.389v-0.146v-0.146L10.509,7.465L10.435,7.538z"/>
	
		<linearGradient id="SVGID_2_" gradientUnits="userSpaceOnUse" x1="33.8343" y1="161.9984" x2="9.6374" y2="161.9984" gradientTransform="matrix(1 0 0 -1 0 181.9998)">
		<stop  offset="0" style="stop-color:#FFE000"/>
		<stop  offset="0.4087" style="stop-color:#FFBD00"/>
		<stop  offset="0.7754" style="stop-color:#FFA500"/>
		<stop  offset="1" style="stop-color:#FF9C00"/>
	</linearGradient>
	<path class="st3" d="M27.028,24.278l-4.129-4.131v-0.146v-0.146l4.13-4.13l0.093,0.053l4.893,2.78c1.398,0.794,1.398,2.093,0,2.888
		l-4.893,2.78L27.028,24.278z"/>
	
		<linearGradient id="SVGID_3_" gradientUnits="userSpaceOnUse" x1="24.8269" y1="159.7038" x2="2.0686" y2="136.9455" gradientTransform="matrix(1 0 0 -1 0 181.9998)">
		<stop  offset="0" style="stop-color:#FF3A44"/>
		<stop  offset="1" style="stop-color:#C31162"/>
	</linearGradient>
	<path class="st4" d="M27.122,24.225l-4.223-4.224L10.435,32.464c0.461,0.488,1.221,0.548,2.078,0.061L27.122,24.225"/>
	
		<linearGradient id="SVGID_4_" gradientUnits="userSpaceOnUse" x1="7.2972" y1="181.8237" x2="17.4598" y2="171.6612" gradientTransform="matrix(1 0 0 -1 0 181.9998)">
		<stop  offset="0" style="stop-color:#32A071"/>
		<stop  offset="0.0685" style="stop-color:#2DA771"/>
		<stop  offset="0.4762" style="stop-color:#15CF74"/>
		<stop  offset="0.8009" style="stop-color:#06E775"/>
		<stop  offset="1" style="stop-color:#00F076"/>
	</linearGradient>
	<path class="st5" d="M27.122,15.777l-14.608-8.3c-0.857-0.487-1.617-0.426-2.078,0.061l12.463,12.463L27.122,15.777z"/>
	<g>
		<path class="st6" d="M27.029,24.132l-14.515,8.247c-0.812,0.461-1.538,0.431-2.004,0.011l0,0l-0.075,0.074l0,0l0.074,0.072l0,0
			c0.466,0.42,1.192,0.451,2.004-0.011l14.608-8.3L27.029,24.132z"/>
		<path class="st7" d="M10.435,32.318c-0.291-0.308-0.463-0.786-0.463-1.405v0.146c0,0.619,0.172,1.097,0.463,1.405l0.075-0.074
			L10.435,32.318z"/>
	</g>
	<path class="st7" d="M32.015,21.299l-4.986,2.833l0.093,0.093l4.893-2.78c0.699-0.397,1.048-0.92,1.048-1.443l0,0
		C33.004,20.474,32.648,20.939,32.015,21.299z"/>
	<path class="st8" d="M12.513,7.623l19.501,11.08c0.634,0.36,0.989,0.824,1.048,1.298l0,0c0-0.523-0.349-1.047-1.048-1.444
		L12.513,7.477c-1.398-0.794-2.541-0.135-2.541,1.466v0.146C9.972,7.489,11.116,6.829,12.513,7.623z"/>
</g>
<g>
	<path class="st9" d="M41.348,13V7h0.938l2.916,4.668h0.033l-0.033-1.156V7h0.771v6H45.17l-3.051-4.894h-0.033l0.033,1.156V13
		H41.348z"/>
	<path class="st9" d="M49.636,13h-0.771v-2.79L46.846,7h0.905l1.483,2.439h0.033L50.717,7h0.905l-1.986,3.21V13z"/>
	<path class="st9" d="M52.493,13V7h0.938l2.916,4.668h0.033l-0.033-1.156V7h0.771v6h-0.805l-3.051-4.894H53.23l0.033,1.156V13
		H52.493z"/>
	<path class="st9" d="M58.493,13V7h0.771v6H58.493z M59.214,6.531h-0.671l0.437-1.073h0.838L59.214,6.531z"/>
	<path class="st9" d="M62.649,13V7h0.938l2.916,4.668h0.033l-0.033-1.156V7h0.771v6h-0.805L63.42,8.106h-0.033l0.033,1.156V13
		H62.649z"/>
	<path class="st9" d="M68.146,13l2.263-6h0.871l2.263,6h-0.854l-0.578-1.626h-2.522L69.001,13H68.146z M69.848,10.653h1.994
		l-0.98-2.707h-0.033L69.848,10.653z"/>
</g>
</svg>
