<?xml version="1.0" encoding="utf-8"?>
<!-- Generator: Adobe Illustrator 25.0.0, SVG Export Plug-In . SVG Version: 6.00 Build 0)  -->
<svg version="1.1" id="Layer_1" xmlns="http://www.w3.org/2000/svg" xmlns:xlink="http://www.w3.org/1999/xlink" x="0px" y="0px"
	 width="80px" height="22px" viewBox="0 0 80 22" style="enable-background:new 0 0 80 22;" xml:space="preserve">
<style type="text/css">
	.st0{fill:#0019A5;}
</style>
<path class="st0" d="M80,21.099v-1.394h-3.612c0.363-0.355,0.741-0.729,1.134-1.122c0.393-0.393,0.752-0.799,1.077-1.217
	c0.325-0.418,0.594-0.851,0.805-1.299c0.211-0.448,0.317-0.908,0.317-1.381c0-0.87-0.251-1.519-0.754-1.945
	c-0.503-0.427-1.177-0.64-2.021-0.64c-0.456,0-0.906,0.055-1.35,0.165c-0.444,0.11-0.868,0.266-1.274,0.469l0.14,1.47
	c0.296-0.194,0.615-0.361,0.957-0.501c0.342-0.139,0.703-0.209,1.084-0.209c0.177,0,0.353,0.023,0.526,0.07
	c0.173,0.047,0.327,0.12,0.463,0.222c0.135,0.101,0.245,0.226,0.329,0.374c0.085,0.148,0.127,0.323,0.127,0.526
	c0,0.27-0.076,0.562-0.228,0.875c-0.152,0.313-0.346,0.629-0.583,0.95c-0.237,0.321-0.501,0.638-0.792,0.951
	c-0.291,0.313-0.579,0.606-0.862,0.881c-0.283,0.275-0.547,0.522-0.792,0.741c-0.245,0.22-0.435,0.397-0.57,0.532v1.483H80z"/>
<path class="st0" d="M72.93,5.35c-0.33-0.98-0.82-1.82-1.46-2.52c-0.65-0.7-1.44-1.25-2.39-1.64c-0.94-0.4-2.02-0.59-3.24-0.59
	c-1.22,0-2.31,0.19-3.26,0.58c-0.94,0.38-1.74,0.92-2.38,1.63c-0.64,0.7-1.13,1.54-1.45,2.51c-0.33,0.98-0.49,2.06-0.49,3.24
	s0.16,2.27,0.49,3.26c0.32,0.99,0.8,1.84,1.44,2.55c0.63,0.71,1.42,1.26,2.37,1.65c0.95,0.4,2.04,0.59,3.28,0.59
	c1.23,0,2.31-0.2,3.25-0.6c0.94-0.4,1.73-0.95,2.38-1.67c0.64-0.72,1.13-1.57,1.46-2.55c0.33-0.98,0.5-2.06,0.5-3.23
	S73.26,6.32,72.93,5.35z M69.96,10.61c-0.16,0.68-0.41,1.27-0.76,1.8c-0.34,0.52-0.79,0.95-1.34,1.27
	c-0.55,0.33-1.22,0.49-2.02,0.49c-0.8,0-1.47-0.16-2.01-0.49c-0.55-0.32-1-0.75-1.35-1.27c-0.34-0.53-0.6-1.12-0.75-1.8
	c-0.16-0.67-0.23-1.35-0.23-2.05c0-0.68,0.08-1.35,0.24-2.01c0.16-0.65,0.42-1.25,0.78-1.77c0.35-0.53,0.8-0.95,1.35-1.26
	c0.55-0.32,1.2-0.48,1.97-0.48c0.77,0,1.43,0.16,1.98,0.48c0.54,0.31,1,0.73,1.35,1.26c0.36,0.52,0.61,1.12,0.78,1.77
	c0.16,0.66,0.24,1.33,0.24,2.01C70.19,9.26,70.11,9.94,69.96,10.61z"/>
<path class="st0" d="M45.76,14.44c-0.94,0-1.69-0.25-2.28-0.74c-0.58-0.5-0.91-1.21-0.98-2.14h7.89c0-1-0.08-1.92-0.25-2.77
	c-0.17-0.85-0.47-1.57-0.88-2.18C48.85,6,48.29,5.53,47.6,5.18c-0.7-0.35-1.58-0.52-2.64-0.52c-0.89,0-1.67,0.16-2.33,0.47
	c-0.67,0.32-1.22,0.75-1.65,1.3c-0.44,0.55-0.77,1.19-0.99,1.92c-0.22,0.73-0.33,1.51-0.33,2.34c0,1.89,0.52,3.35,1.56,4.38
	c1.04,1.03,2.51,1.54,4.4,1.54c0.8,0,1.52-0.08,2.15-0.23C48.41,16.22,49,16,49.55,15.7v-2.41c-0.56,0.31-1.16,0.58-1.78,0.8
	C47.15,14.32,46.48,14.44,45.76,14.44z M43.24,7.6c0.42-0.51,1.05-0.77,1.89-0.77c0.42,0,0.77,0.08,1.07,0.22
	c0.29,0.15,0.54,0.35,0.73,0.59s0.34,0.53,0.43,0.85c0.1,0.33,0.16,0.67,0.19,1.02H42.5C42.57,8.75,42.82,8.11,43.24,7.6z"/>
<rect x="34.289" class="st0" width="2.972" height="2.839"/>
<path class="st0" d="M33.823,21.27c0.739,0,1.334-0.137,1.785-0.41c0.451-0.274,0.799-0.614,1.042-1.02
	c0.244-0.407,0.407-0.85,0.488-1.331c0.081-0.481,0.122-0.92,0.122-1.32V4.924h-2.972V16.79c0,0.444-0.018,0.802-0.056,1.076
	c-0.037,0.274-0.122,0.488-0.255,0.643c-0.133,0.155-0.318,0.266-0.555,0.333c-0.237,0.067-0.555,0.107-0.954,0.122l-0.111,2.129
	c0.192,0.059,0.421,0.104,0.688,0.133C33.313,21.255,33.572,21.27,33.823,21.27z"/>
<path class="st0" d="M31.44,8.17c-0.3-0.74-0.73-1.38-1.27-1.89c-0.53-0.52-1.17-0.92-1.9-1.2c-0.73-0.28-1.52-0.42-2.36-0.42
	c-0.85,0-1.63,0.14-2.36,0.42c-0.72,0.28-1.35,0.68-1.89,1.2c-0.54,0.51-0.96,1.15-1.27,1.89c-0.3,0.75-0.45,1.6-0.45,2.54
	c0,0.83,0.13,1.6,0.4,2.32c0.26,0.72,0.65,1.34,1.16,1.87c0.51,0.54,1.14,0.95,1.88,1.26c0.74,0.3,1.58,0.45,2.53,0.45
	c0.94,0,1.79-0.15,2.53-0.45c0.75-0.31,1.38-0.72,1.89-1.26c0.51-0.53,0.9-1.15,1.16-1.87c0.27-0.72,0.4-1.49,0.4-2.32
	C31.89,9.77,31.74,8.92,31.44,8.17z M28.66,11.78c-0.09,0.47-0.24,0.9-0.46,1.27c-0.21,0.38-0.51,0.68-0.88,0.91
	c-0.37,0.23-0.84,0.35-1.41,0.35c-0.57,0-1.03-0.12-1.4-0.36s-0.66-0.54-0.88-0.92c-0.21-0.38-0.36-0.8-0.45-1.26
	c-0.09-0.47-0.14-0.94-0.14-1.41c0-0.43,0.06-0.85,0.18-1.26c0.12-0.4,0.3-0.76,0.53-1.08c0.24-0.32,0.54-0.58,0.89-0.77
	c0.36-0.19,0.78-0.29,1.27-0.29c0.48,0,0.91,0.1,1.27,0.29s0.66,0.45,0.9,0.76s0.41,0.67,0.53,1.07c0.12,0.41,0.18,0.83,0.18,1.28
	C28.79,10.83,28.74,11.3,28.66,11.78z"/>
<polygon class="st0" points="2.972,16.346 2.972,3.615 3.016,3.571 7.186,16.346 10.158,16.346 14.328,3.571 14.372,3.571
	14.372,16.346 17.344,16.346 17.344,0.865 12.376,0.865 8.694,12.598 8.65,12.598 4.968,0.865 0,0.865 0,16.346 "/>
</svg>
